<svg xmlns="http://www.w3.org/2000/svg" width="35.01" height="28.289" viewBox="0 0 35.01 28.289">
  <g id="プッシュ電話のフリーアイコン" transform="translate(0 -49.15)">
    <path id="パス_332" data-name="パス 332" d="M31.68,51.843C27.37,49.38,21.66,49.15,17.505,49.15s-9.866.23-14.174,2.693S.1,58.923.175,59.384s.925,2.078,2.386,1.924A26.581,26.581,0,0,0,8.578,59.46a2.06,2.06,0,0,0,.385-2.693c-.539-.924-.077-1.231-.077-1.231H26.124s.462.307-.077,1.231a2.06,2.06,0,0,0,.385,2.693,26.589,26.589,0,0,0,6.017,1.849c1.462.153,2.309-1.463,2.386-1.924S35.989,54.306,31.68,51.843Z" transform="translate(0)"/>
    <path id="パス_333" data-name="パス 333" d="M88.048,159.783a.671.671,0,0,0-.6-.362H85.461a.449.449,0,0,0-.448.45v1.36a.449.449,0,0,1-.45.449H78.305a.449.449,0,0,1-.45-.449v-1.36a.449.449,0,0,0-.448-.45H75.417a.67.67,0,0,0-.6.362l-4.9,9.376a11.431,11.431,0,0,0-1.3,5.3v2.188a2.245,2.245,0,0,0,2.245,2.245h.561v1.279h2.286v-1.279H89.156v1.279h2.285v-1.279H92a2.245,2.245,0,0,0,2.245-2.245v-2.188a11.437,11.437,0,0,0-1.3-5.3ZM87.01,172.662v2.52h-2.52v-2.52Zm0-3.985v2.52h-2.52v-2.52Zm-2.52-1.466v-2.52h2.52v2.52Zm-1.8,5.451v2.52h-2.52v-2.52Zm0-3.985v2.52h-2.52v-2.52Zm0-3.985v2.52h-2.52v-2.52Zm-4.317,7.971v2.52h-2.52v-2.52Zm0-3.985v2.52h-2.52v-2.52Zm-2.52-1.466v-2.52h2.52v2.52Z" transform="translate(-63.929 -102.731)"/>
  </g>
</svg>
