<svg xmlns="http://www.w3.org/2000/svg" width="93.439" height="81.803" viewBox="0 0 93.439 81.803">
  <path id="icon01.svg" d="M569.83,21624.7H492.37a8.012,8.012,0,0,0-7.989,8v49.9a8.012,8.012,0,0,0,7.989,8H519.3v9.8h-9.018a1.081,1.081,0,0,0-1.048,1.1v3.9a1.081,1.081,0,0,0,1.048,1.1l41.626,0a1.078,1.078,0,0,0,1.048-1.1v-3.9a1.081,1.081,0,0,0-1.048-1.1H542.9v-9.8h26.93a8.011,8.011,0,0,0,7.99-8v-49.9a8.011,8.011,0,0,0-7.99-8Zm-18.965,77.8v1.9H511.334v-1.9Zm-28.837-2.1v-9.8h18.144v9.8Zm53.068-17.8a5.3,5.3,0,0,1-5.266,5.3H492.37a5.3,5.3,0,0,1-5.265-5.3v-3.3H575.1v3.3Zm0-6H487.105v-43.9a5.3,5.3,0,0,1,5.265-5.3l77.46,0a5.3,5.3,0,0,1,5.266,5.3Zm-44,9.5a2.15,2.15,0,1,0-2.143-2.2,2.182,2.182,0,0,0,2.147,2.2Z" transform="translate(-484.381 -21624.699)" fill="#f490f4" fill-rule="evenodd"/>
</svg>
