<svg xmlns="http://www.w3.org/2000/svg" width="77.813" height="87.754" viewBox="0 0 77.813 87.754">
  <path id="icon_02.svg" d="M542.524,22717.5h-1.109V22686a7,7,0,0,0-7.029-7H499.028a7,7,0,0,0-7.029,7v66.9a7,7,0,0,0,7.029,7l35.725,0a22.32,22.32,0,0,0,7.771,1.5,21.95,21.95,0,1,0,0-43.9ZM493.5,22686a5.54,5.54,0,0,1,5.525-5.5l35.358,0a5.537,5.537,0,0,1,5.525,5.5v7.4H493.5Zm0,8.9h46.408v22.8a21.872,21.872,0,0,0-19.246,21.7c0,.7.034,1.3.092,2H493.5Zm5.525,63.5a5.545,5.545,0,0,1-5.525-5.5v-10h27.439a21.93,21.93,0,0,0,10.678,15.5H499.028Zm43.5,1.4a20.069,20.069,0,0,1-7.546-1.4,20.433,20.433,0,0,1-12.508-15.5c-.086-.5-.156-1-.205-1.5-.062-.7-.1-1.3-.1-2a20.435,20.435,0,0,1,17.742-20.2c.5-.1,1-.1,1.5-.2h1.109a20.4,20.4,0,1,1,0,40.8Zm0-35.5a4.149,4.149,0,0,0-1.109.1,7.616,7.616,0,0,0-1.5.2,15.031,15.031,0,0,0-12.448,14.8,14.653,14.653,0,0,0,.132,2q.1.75.275,1.5a15.1,15.1,0,0,0,11.857,11.4c.493.1,1,.1,1.5.2h1.294a15.1,15.1,0,0,0,0-30.2Zm0,28.7h-1.112c-.509-.1-1.01-.1-1.5-.2a13.635,13.635,0,0,1-10.494-9.9,14.4,14.4,0,0,1-.307-1.5,13.584,13.584,0,0,1,10.8-15.3,7.472,7.472,0,0,1,1.5-.2c.366,0,.735-.1,1.109-.1a13.6,13.6,0,1,1,0,27.2Zm26,11.4-8.724-8.7a.739.739,0,0,0-1.063,0,.8.8,0,0,0,0,1.1l8.724,8.7a.765.765,0,1,0,1.063-1.1Zm-31.1-26a.72.72,0,0,0-.752.7v6.1a.753.753,0,1,0,1.5,0v-6.1a.718.718,0,0,0-.746-.7Zm5.064-5.8a.721.721,0,0,0-.752.7v11.9a.753.753,0,1,0,1.5,0v-11.9a.717.717,0,0,0-.746-.7Zm5.592,3.9a.718.718,0,0,0-.752.7v8a.753.753,0,1,0,1.5,0v-8a.718.718,0,0,0-.746-.7Z" transform="translate(-491.499 -22678.5)" fill="#f490f4" stroke="#f490f4" stroke-width="1" fill-rule="evenodd"/>
</svg>
