<svg xmlns="http://www.w3.org/2000/svg" width="87.692" height="76.877" viewBox="0 0 87.692 76.877">
  <path id="シェイプ_3" data-name="シェイプ 3" d="M1193.23,22241.2h-85.15a.721.721,0,0,1-.531-.189.729.729,0,0,1-.239-.51v-74.4a.775.775,0,1,1,1.55,0v73.6h84.37a.753.753,0,0,1,.77.8.73.73,0,0,1-.239.51.721.721,0,0,1-.531.189Zm-73.35-11.3a.753.753,0,0,1-.77-.8.729.729,0,0,1,.239-.51.721.721,0,0,1,.531-.189c2.32,0,4.71-8.1,6.81-15.2,3.54-12,7.55-25.6,15.42-25.6,7.75,0,10.81,12.6,13.51,23.7,1.79,7.4,3.65,15,6.32,15a.8.8,0,0,1,0,1.6c-3.88,0-5.62-7.2-7.82-16.2-2.57-10.6-5.47-22.5-12.01-22.5-6.72,0-10.72,13.5-13.94,24.4-2.98,10.1-4.98,16.3-8.29,16.3Zm18.3,0a.747.747,0,0,1-.77-.8.727.727,0,0,1,.77-.7c2.65,0,4.87-9.6,7.01-18.9,3.65-15.9,8.2-35.6,19.28-35.6,9.07,0,12.67,16.8,15.84,31.6,2.15,10.1,4.37,20.4,7.62,20.4a.8.8,0,0,1,0,1.6c-4.5,0-6.54-9.6-9.12-21.6-2.9-13.6-6.51-30.5-14.34-30.5-9.86,0-14.25,19.1-17.78,34.4-2.69,11.7-4.63,20.1-8.51,20.1Z" transform="translate(-1106.81 -22164.824)" fill="#f490f4" stroke="#f490f4" stroke-width="1" fill-rule="evenodd"/>
</svg>
